# xmcd
#
# Track frame offsets: 
#        150
#        18180
#        25202
#        40647
#        52713
#        64571
#        72722
#        81182
#        92689
#        98703
#        113866
#        127257
#        134140
#
# Disc length: 1948 seconds
#
# Revision: 0
# Processed by: cddbd v1.5.2PL0 Copyright (c) Steve Scherf et al.
# Submitted via: ExactAudioCopy v0.99pb3
#
DISCID=ad079a0d
DTITLE=Whitetop Mountain Band - Echoes of the Blue Ridge
DYEAR=1900
DGENRE=Bluegrass
TTITLE0=My Old Home's In Whitetop Mountain
TTITLE1=Sally Was a Poor Girl
TTITLE2=Amazing Grace
TTITLE3=Going Around This World, Baby Mine
TTITLE4=Lost John
TTITLE5=Johnson Boys
TTITLE6=Echoes of the Blue Ridge
TTITLE7=When Its Time for the Whippoorwills To Sing
TTITLE8=Flop-Eared Mule
TTITLE9=Dream of The Miner's Child
TTITLE10=Gold Hill Waltz
TTITLE11=Pickin' Out The Devil's Eyes
TTITLE12=Where The Soul Never Dies
EXTD=
EXTT0=
EXTT1=
EXTT2=
EXTT3=
EXTT4=
EXTT5=
EXTT6=
EXTT7=
EXTT8=
EXTT9=
EXTT10=
EXTT11=
EXTT12=
PLAYORDER=
